# xmcd CD database file
#
# Track frame offsets:
#	182
#	35235
#	79042
#	104670
#	130457
#	160852
#	181967
#	200795
#
# Disc length: 3151 seconds
#
# Revision: 6
# Processed by: cddbd v1.5.2PL0 Copyright (c) Steve Scherf et al.
# Submitted via: CDex 1.70beta3
#
DISCID=730c4d08
DTITLE=Thelonious Monk - Misterioso
DYEAR=1965
DGENRE=Jazz
TTITLE0=Well, You Needn't
TTITLE1=Misterioso
TTITLE2=Light Blue
TTITLE3=I'm Gettin' Sentimental Over You
TTITLE4=All The Things You Are
TTITLE5=Honeysuckle Rose
TTITLE6=Bemsha Swing
TTITLE7=Evidence
EXTD=YEAR: 1965
EXTT0=
EXTT1=
EXTT2=
EXTT3=
EXTT4=
EXTT5=
EXTT6=
EXTT7=
PLAYORDER=
